<?xml version="1.0" encoding="UTF-8"?>
<svg id="Ebene_1" xmlns="http://www.w3.org/2000/svg" xmlns:xlink="http://www.w3.org/1999/xlink" version="1.1" viewBox="0 0 522.5 144.5">
  <!-- Generator: Adobe Illustrator 30.6.0, SVG Export Plug-In . SVG Version: 2.1.4 Build 109)  -->
  <defs>
    <style>
      .st0 {
        fill: none;
      }

      .st1 {
        fill: #673b50;
      }

      .st2 {
        clip-path: url(#clippath);
      }
    </style>
    <clipPath id="clippath">
      <rect class="st0" y="0" width="522.5" height="144.5"/>
    </clipPath>
  </defs>
  <g class="st2">
    <path class="st1" d="M269.6,111.9c2.5,3,7.3,3.8,10.6,2.4,3-1.3,4.1-4.2,4.9-7l2.4-8.1c1.1-3.7.7-8.3-1.3-11.5l-2.9-4.5c-1.1-1.7-1.2-3.7-2.3-5.2-2.6-3.5-7.8-4.2-10.7-.8l-3.5,5.3c-2,3-4,6.4-4,10.2v7.9c0,2,.7,4.1,2,5.6l4.8,5.6ZM195.7,86.8c4.3,3,11.4,5.9,15.6,3.6,4.7-4.1,7.4-9.4,7.6-15.7.8-4.5.5-9.5-1.9-13.4l-4.9-7.8c-1.8-3.6-6.3-5.2-10.1-3.9l-2.4,4.6c-1.9,2.5-3,4.8-4,7.6-1.8,4.9-3.8,9.5-4.5,14.8-.3,2.4,1.6,8.2,4.5,10.2M286.2,52.5c2.1-3,4.8-5.4,6-9,.5-1.7,0-4.4-1.3-5.7l-5.3-5.2c-2.3-2.2-6.2-.6-8.3,1.3-7.1,2-14.1,5.3-14,12.6,0,4.4,3.1,7.7,7,9.6,5.9,3,11.9,1.9,15.9-3.7M218.1,127.2c-3.9,4.4-10.7,3.4-14.3-.6-1.5-1.7-2.5-3.3-3.7-5.2l-9.6-15.6c-3.4-5.5-6.1-11-11.3-15.1l-4.5-3.6c-3.4-2.7-3.5-5.7-1.8-9.3l3.1-6.9,3.4-7.2c1.5-3.1,2.2-6.6,3.1-10.1,1.3-5.1,3.3-9.7,5-14.7l1.2-3.5,3.1-11.8c1-3.7.6-7.5,3.5-10.6,2.5-2.7,6.2-4.7,9.9-2.9,3,1.4,5,5,4.7,8.3-.2,2.1-.5,4.3.4,6.2,2,4.1,5,7.3,7.3,11,1.8,2.9,3.4,5.7,5.9,8.1,2.1,2.4,4.2,4.7,4.1,8.1l5.7,8c.5.7,1.9,1.3,2.5,1.7,3,2,5.7,2.6,9.1,1.5,2.8-.9,4.7-2.9,4.9-6,.2-3.3-1.7-5.2-4.4-6.4-3-1.4-4.2-5-4.1-8.1.2-3.1,2.3-5.7,4.9-7.6l5.6-4,6.9-6.2c2.2-3,4.7-5.7,7.4-8.3,2.4-4.6,9.1-14.2,12.2-15.7,4.3-2.1,9.7-.6,11.9,3.7l5.2,10.1c2.3,4.5,5.6,8.4,9.8,11.1,2.5,1.5,4.7,3.7,4.6,6.9-.2,5-2.4,9.6-5.8,13.2.9,8.5-.8,8.3-4.6,11.9l-3.2,3c-2.2,2.1-4.6,3.8-5.3,6.8,3.3,6.6,11.4,15.7,17.4,18.5,3.2,1.5,4.5,4.5,4.1,7.8-.5,3.7-2,6.5-4.8,8.9l-2.9,3.2-6.1,7.9-6.5,11.4c-.7,1.2-1.8,2.7-2,4-.9,5.2-5.6,8.4-10.7,6.7-5.1-1.7-8.5-5.7-12.5-9.3-3.9-3.5-8.8-6.3-13.6-8.1-2.4-.9-3.5-1.4-5-3.7l-3.7-3.9c-3.6-4.9-2.7-10.9,1.9-14.8,3.9-3.4,5.8-9.2,3.2-13.9-1.6-2.8-5.9-3.6-8.3-2.3-2.6,1.4-3.8,3.4-5.3,5.4-2.3,3-4.5,5.8-6,9.3l-6.5,14.9c-2.4,5.4-.7,12.2-5.5,17.6"/>
    <path class="st1" d="M2.4,89.1c-6.8-7.9,2.2-16,9-21.9l4.7-4c4.3-3.6,6.9-7.9,9-13.1l2-4.9c1.3-3.4,1.3-6.7.8-10.2-.6-4,1.7-7.4,5.5-8.4,4-1,10.7-1.9,14.3-1.2,9.2,1.7,3,13.3,2.3,18.6l-1.9,14.9c-.3,2.5-1.1,4.9-1.3,7.4l-.8,11.6c-.5,6.4-.3,12.6.8,18.9,3.1,2.4,7.4.6,12.9.9,1.9.1,4.5.9,6.2.4l6.4-1.6c2.7-.7,6.2-1.3,8.9-.3,6.9,2.7,5.1,11.5,5.8,12.7.2.4,1.4.6,1.9.5,8.3-1.1,15-6.1,19.2-13.2,1.9-6.8-.4-13.7-6.2-17.7-4-3.6-13.2-5-18-3.4l-10.2,3.4c-3.4,1.1-7.3,1.2-10.9.5-2.4-.5-4.1-2.9-4.9-4.5-.9-2.7-.5-5.1,1.1-7.3l1.2-6.6c.4-2.4,1.1-4.7,2.2-6.9l2.5-5c1-2,2.1-3.7,2.1-6.2,0-4.4.6-9,3.9-12.3,2.8-2.7,7-3.8,11-3.7l11.8.3c6,.2,6.9-5.4,11.4-9.6,7.5-7,18.6-5.4,24.6,2.5,3.4,4.5,4.9,9.4,3.5,14.9-1.3,5.1-5.3,8-10.1,9.6-2.7,1-4.7,1.8-7.5,0-2.5-1.7-5.9-2.5-9-3.2-4-.9-8-1.5-12-.3-6,1.9-6.8,3.1-10.3,6.6-2.2,2.2-2.2,4.9-.8,7.6,2.2,4.1,6.1,6.4,10.4,8.1,3.3,1.3,6.5,2.4,10.1,3,5.3,1,10,1.7,11.6,7.9.9,3.7,3.3,5.2,6,7.4,2.4,2,4.3,4.8,7,6.5,2.7,1.7,4.2,4.3,4.1,7.3-.1,3.1-2.3,5.1-4.9,6.7l-6.5,4c-2,7-4.6,13.6-8.8,19.5l-6.1,7.4c-1.2,1.5-2.9,2.5-4.6,3.3-4.4,2.1-8.8.6-11.3-3.6-2.5-4.2-5.8-1.1-10.8-2.6-2.8-.9-4.9-3.1-7.2-4.5l-9-5.5c-1.8-1.1-5.1-.2-6.9.7-1,5-4.8,8.5-9.9,8.4l-12.6-.2c-3.1,0-6.1-.8-8.2-3.4-3.1-3.9-2.4-9.2.3-13.4,6.3-9.7,11.1-20.5,9-32.1-3.6-2.7-7.1.8-12.8,1.2-2.2.2-4,1.2-5.5,2.8-2.5,2.6-5.5,4.5-8.6,6.3-2,1.2-4,.9-5.6-1"/>
    <path class="st1" d="M157.4,124.6c-4,4.9-10.7,5.3-15.2,1-1.2-1.1-2.1-3.6-4-3.4-2.5-3.8-3-8.9-.3-13.3,1-5.1,5.2-8.6,10.3-8.9,5.7-.4,10.1,2.8,12.9,7.5,2.5,4.1,3,9-.2,13l-3.4,4.2Z"/>
    <path class="st1" d="M493.4,107.6c2.7-3.2,3.4-7.2,1.7-11.1-1.4-3-4.6-5.5-8.5-5.8-5.8-.6-11.5,2.5-12.9,8.4-.7,2.8-.7,5.8-.3,8.7.6,5.2,5,8.9,10,8.8,5,0,9.3-3.6,10-8.9M502,121c-3.5,4.2-6.1,8.4-8.6,13.1-1.6,3-4.1,5.8-7.2,7.1l-5.1,2.1c-4.4,1.8-9.9,2-13.3-2.1-2.2-2.8-2.7-6.9-3.6-10.2l-2.7-10-2.7-8.3-1.9-9.9c-.2-1.2-1.4-2.2-2.7-1.9-6.2,1.6-9,6.1-11,11.8l-3.2,9.1c-.9,2.5-2.8,5.2-5.2,6.5-2.9,1.6-4.7,3.2-6.8,5.6-3.5,4.1-9.8,5.4-14.9,4-4.1-1.1-6.8-3.9-9.8-6.5-2.8-2.5-6.4-3.8-9.8-5.5-2.3-1.1-5-2.3-7.6-1.9-6.8,1.1-12,7.4-18.2,5.3-5.9-2-7.1-11.5-5.8-14.4,4.2-9.7,14.5-16.5,17-20.9l5.2-8.9,3.5-4.4,9-9c2-2,3.7-4.7,5-7.2l4.6-9.1c1-1.9,1.9-4.9.9-6.9l-3.4-6.5c-1.4-2.7-2.9-4.2-5.7-5.4-3.2-1.4-6.6-2.6-9.9-1-5.4,2.6-2.3,9-3.5,13.3-1.9,7-14.4,11.9-23.8,7.5-4.7-2.2-6.9-6.8-6.8-11.8.2-7.7,6.2-13.3,13.9-13.3,1.3,0,4.2-.3,5-1.4l5.5-7.3,5.5-9.8c1.5-2.6,3.4-5.1,6.2-6.4,2.4-1.1,6.3-1.3,8.5,0,1.8,1.1,3,2,4.9,2.2,5.8.6,10.5,3.7,13.7,8.6,6.8,10.3,6.4,21.1,9.8,28.2,3.5,7.3,9.7,9.8,8.6,13.7-.3,1-1.5,2.1-2.6,3-3,1.4-5.1,3.5-6.8,6.2l-10,7c-2.6,1.8-6.1,2.6-8.4,4.8l-13.9,13.1c-.8,2.2.7,4.6,2,6l3.3,3.3c3.8,3.8,8.6,6,14.2,5.4l7-1.8c4.2-.5,8.1-1.3,11.4-4.1,3.4-2.8,6.4-5.7,8.2-9.8,1.1-2.4,3.1-5.1,2.9-7.9-.2-2.7-1-5.2-.2-7.9,1-3.4,2.8-6.6,4.8-9.6l6.2-9.6,5.5-7.1,6-7.9c5.9-7.8,4.5-19.5,12.7-29.3,3.7-4.4,10.9-6.5,15.8-2.9,4.6,3.5,4.3,10.2,1.2,14.6-4.6,6.6-13.5,10.6-20.8,23.9-1.7,3.2-3.6,6.1-4.4,9.6-1.4,5.4.9,11,6.2,13,6.9,2.6,6.8-3.7,10.8-6,2.6-1.5,6-1.7,8.8-.9,4.8,1.4,7.4,5.5,8.9,9.9,1.8,5.1,4.9,8.8,9.4,11.6,1.8,1.1,3.1,3.1,4.5,4.6,1.7,1.8,3.5,3.7,3.7,6.3.4,5.4-1.8,10-5.7,13.5-2.2,2-4.4,3.8-7.1,5.1-2.9,1.4-5.5,3.1-7.6,5.7"/>
    <path class="st1" d="M340.9,124.8c-2.6,3.4-5.9,6.4-10.5,5.8-8.5-1.1-16.6-8.4-13.7-16.8,2.6-7.7,11.6-8.3,19.6-6.5,3.8.8,6.2,3.8,7.2,6.7,1.4,4,0,7.4-2.6,10.7"/>
  </g>
</svg>